<svg xmlns="http://www.w3.org/2000/svg" width="80" height="80" viewBox="0 0 80 80" fill="none">
<path fill-rule="evenodd" clip-rule="evenodd" d="M15 40C15 39.4964 15.0149 38.9962 15.0443 38.5C15.82 25.3912 26.6965 15 40 15C53.3035 15 64.18 25.3912 64.9557 38.5C64.9851 38.9962 65 39.4964 65 40C65 40.5036 64.9851 41.0038 64.9557 41.5C64.18 54.6087 53.3035 65 40 65C26.6965 65 15.82 54.6087 15.0443 41.5C15.0149 41.0038 15 40.5036 15 40ZM34.6781 18.648C31.4854 19.4412 28.5682 20.9317 26.0975 22.9486C27.7711 24.1787 29.6132 25.1923 31.583 25.9482C32.3771 23.0083 33.4354 20.5115 34.6781 18.648ZM18.0503 38.5C18.3997 33.3115 20.5479 28.6161 23.8765 25.0321C25.9903 26.6548 28.3562 27.9663 30.9051 28.8976C30.3409 31.8273 30.0191 35.0766 30.0008 38.5H18.0503ZM33.0009 38.5C33.0186 35.3603 33.3051 32.4099 33.7936 29.7689C35.7846 30.2468 37.8629 30.5 40 30.5C42.1371 30.5 44.2154 30.2468 46.2064 29.7689C46.6949 32.41 46.9814 35.3603 46.9991 38.5H33.0009ZM49.9992 38.5C49.9809 35.0766 49.6591 31.8273 49.095 28.8976C51.6438 27.9663 54.0097 26.6548 56.1235 25.0321C59.4521 28.6161 61.6003 33.3115 61.9497 38.5H49.9992ZM48.417 25.9482C50.3868 25.1923 52.2289 24.1787 53.9025 22.9486C51.4318 20.9317 48.5146 19.4412 45.3219 18.648C46.5646 20.5115 47.6229 23.0083 48.417 25.9482ZM40 27.5C41.9124 27.5 43.771 27.2718 45.5504 26.841C45.1884 25.4828 44.7692 24.2402 44.3051 23.1353C43.4921 21.1995 42.6005 19.8276 41.7637 18.9849C40.938 18.1535 40.3444 18 40 18C39.6556 18 39.062 18.1535 38.2363 18.9849C37.3995 19.8276 36.5079 21.1995 35.6949 23.1353C35.2308 24.2402 34.8116 25.4828 34.4496 26.841C36.229 27.2718 38.0876 27.5 40 27.5ZM30.0631 41.5H18.0503C18.4033 46.7425 20.5929 51.4817 23.9809 55.0795C26.2016 53.3504 28.7054 51.9668 31.4109 51.01C30.6977 48.1697 30.2259 44.9462 30.0631 41.5ZM32.2618 53.8917C30.0781 54.6807 28.0449 55.7842 26.2163 57.1477C29.3722 59.6877 33.244 61.3744 37.4812 61.8574C35.4012 60.5724 33.5841 57.7333 32.2618 53.8917ZM35.147 53.0551C36.7894 52.6916 38.4965 52.5 40.2488 52.5C41.8368 52.5 43.3877 52.6574 44.887 52.9574C44.7023 53.4913 44.508 54.0006 44.3051 54.4837C43.4921 56.4195 42.6005 57.7914 41.7637 58.6341C40.938 59.4656 40.3444 59.619 40 59.619C39.6556 59.619 39.062 59.4656 38.2363 58.6341C37.3995 57.7914 36.5079 56.4195 35.6949 54.4837C35.5044 54.0302 35.3215 53.5535 35.147 53.0551ZM45.7318 50.0682C43.9625 49.6958 42.1284 49.5 40.2488 49.5C38.2015 49.5 36.2081 49.7323 34.2938 50.172C33.6599 47.6147 33.2252 44.6782 33.0666 41.5H46.9334C46.7769 44.6352 46.3518 47.5353 45.7318 50.0682ZM47.7913 53.7361C46.4647 57.6566 44.6268 60.5551 42.5188 61.8574C46.8621 61.3623 50.8215 59.6025 54.0195 56.9552C52.1345 55.5897 50.0393 54.4974 47.7913 53.7361ZM56.2262 54.8565C53.9522 53.1356 51.3913 51.7729 48.6283 50.8526C49.3196 48.0509 49.7771 44.8827 49.9369 41.5H61.9497C61.6039 46.6349 59.4963 51.2869 56.2262 54.8565Z" fill="#1B263B"/>
</svg>