<svg xmlns="http://www.w3.org/2000/svg" width="80" height="80" viewBox="0 0 80 80" fill="none">
<path d="M14.8203 67.7812H12.4219V66.1953H14.8203C15.2109 66.1953 15.526 66.112 15.7656 65.9453C16.0104 65.7786 16.1875 65.5495 16.2969 65.2578C16.4115 64.9661 16.4688 64.6354 16.4688 64.2656C16.4688 63.9115 16.4115 63.5781 16.2969 63.2656C16.1875 62.9531 16.013 62.7005 15.7734 62.5078C15.5339 62.3151 15.2161 62.2188 14.8203 62.2188H12.9531V72H11.0625V60.625H14.8203C15.5703 60.625 16.2109 60.7812 16.7422 61.0938C17.2734 61.4062 17.6797 61.8359 17.9609 62.3828C18.2422 62.9245 18.3828 63.5469 18.3828 64.25C18.3828 64.9844 18.2422 65.6146 17.9609 66.1406C17.6797 66.6667 17.2734 67.0729 16.7422 67.3594C16.2109 67.6406 15.5703 67.7812 14.8203 67.7812ZM19.5391 68.1172V67.4375C19.5391 66.7812 19.6198 66.2005 19.7812 65.6953C19.9427 65.1901 20.1719 64.7682 20.4688 64.4297C20.7708 64.0859 21.125 63.8281 21.5312 63.6562C21.9375 63.4792 22.3854 63.3906 22.875 63.3906C23.375 63.3906 23.8281 63.4792 24.2344 63.6562C24.6458 63.8281 25 64.0859 25.2969 64.4297C25.599 64.7682 25.8307 65.1901 25.9922 65.6953C26.1536 66.2005 26.2344 66.7812 26.2344 67.4375V68.1172C26.2344 68.7734 26.1536 69.3542 25.9922 69.8594C25.8307 70.3646 25.599 70.7891 25.2969 71.1328C25 71.4714 24.6484 71.7266 24.2422 71.8984C23.8359 72.0703 23.3854 72.1562 22.8906 72.1562C22.401 72.1562 21.9505 72.0703 21.5391 71.8984C21.1328 71.7266 20.7786 71.4714 20.4766 71.1328C20.1745 70.7891 19.9427 70.3646 19.7812 69.8594C19.6198 69.3542 19.5391 68.7734 19.5391 68.1172ZM21.3594 67.4375V68.1172C21.3594 68.5391 21.3958 68.9089 21.4688 69.2266C21.5417 69.5391 21.6458 69.7995 21.7812 70.0078C21.9167 70.2161 22.0781 70.3724 22.2656 70.4766C22.4531 70.5807 22.6615 70.6328 22.8906 70.6328C23.1458 70.6328 23.3672 70.5807 23.5547 70.4766C23.7474 70.3724 23.9062 70.2161 24.0312 70.0078C24.1615 69.7995 24.2578 69.5391 24.3203 69.2266C24.3828 68.9089 24.4141 68.5391 24.4141 68.1172V67.4375C24.4141 67.0208 24.3776 66.6562 24.3047 66.3438C24.2318 66.026 24.1276 65.763 23.9922 65.5547C23.8568 65.3411 23.6927 65.1823 23.5 65.0781C23.3125 64.974 23.1042 64.9219 22.875 64.9219C22.651 64.9219 22.4453 64.974 22.2578 65.0781C22.0755 65.1823 21.9167 65.3411 21.7812 65.5547C21.6458 65.763 21.5417 66.026 21.4688 66.3438C21.3958 66.6562 21.3594 67.0208 21.3594 67.4375ZM29.7344 60V72H27.9141V60H29.7344ZM33.7344 71.0703L35.5469 63.5469H37.4609L34.6719 73.2812C34.6094 73.4948 34.5208 73.724 34.4062 73.9688C34.2969 74.2135 34.1536 74.4453 33.9766 74.6641C33.8047 74.888 33.5885 75.0677 33.3281 75.2031C33.0729 75.3438 32.7682 75.4141 32.4141 75.4141C32.2682 75.4141 32.1276 75.401 31.9922 75.375C31.8568 75.349 31.7266 75.3177 31.6016 75.2812V73.8125C31.6432 73.8177 31.6901 73.8229 31.7422 73.8281C31.7943 73.8333 31.8411 73.8359 31.8828 73.8359C32.138 73.8359 32.349 73.7969 32.5156 73.7188C32.6823 73.6458 32.8203 73.526 32.9297 73.3594C33.0391 73.1979 33.1354 72.9818 33.2188 72.7109L33.7344 71.0703ZM32.9297 63.5469L34.4141 69.8359L34.7344 71.875L33.4844 72.1953L30.9688 63.5469H32.9297ZM41.5391 72H39.5625L39.5781 70.4141H41.5391C42.1484 70.4141 42.6354 70.3021 43 70.0781C43.3646 69.849 43.6276 69.5 43.7891 69.0312C43.9505 68.5625 44.0312 67.9635 44.0312 67.2344V65.3828C44.0312 64.8203 43.9844 64.3411 43.8906 63.9453C43.8021 63.5443 43.6615 63.2188 43.4688 62.9688C43.2812 62.7135 43.0339 62.526 42.7266 62.4062C42.4193 62.2812 42.0495 62.2188 41.6172 62.2188H39.5234V60.625H41.6172C42.2682 60.625 42.8568 60.7292 43.3828 60.9375C43.9089 61.1458 44.3594 61.4531 44.7344 61.8594C45.1146 62.2604 45.4062 62.7578 45.6094 63.3516C45.8125 63.9453 45.9141 64.6276 45.9141 65.3984V67.2344C45.9141 68.0052 45.8125 68.6875 45.6094 69.2812C45.4062 69.8698 45.1146 70.3672 44.7344 70.7734C44.3542 71.1745 43.8958 71.4792 43.3594 71.6875C42.8229 71.8958 42.2161 72 41.5391 72ZM40.6484 60.625V72H38.75V60.625H40.6484ZM47.4297 68.1172V67.4375C47.4297 66.7812 47.5104 66.2005 47.6719 65.6953C47.8333 65.1901 48.0625 64.7682 48.3594 64.4297C48.6615 64.0859 49.0156 63.8281 49.4219 63.6562C49.8281 63.4792 50.276 63.3906 50.7656 63.3906C51.2656 63.3906 51.7188 63.4792 52.125 63.6562C52.5365 63.8281 52.8906 64.0859 53.1875 64.4297C53.4896 64.7682 53.7214 65.1901 53.8828 65.6953C54.0443 66.2005 54.125 66.7812 54.125 67.4375V68.1172C54.125 68.7734 54.0443 69.3542 53.8828 69.8594C53.7214 70.3646 53.4896 70.7891 53.1875 71.1328C52.8906 71.4714 52.5391 71.7266 52.1328 71.8984C51.7266 72.0703 51.276 72.1562 50.7812 72.1562C50.2917 72.1562 49.8411 72.0703 49.4297 71.8984C49.0234 71.7266 48.6693 71.4714 48.3672 71.1328C48.0651 70.7891 47.8333 70.3646 47.6719 69.8594C47.5104 69.3542 47.4297 68.7734 47.4297 68.1172ZM49.25 67.4375V68.1172C49.25 68.5391 49.2865 68.9089 49.3594 69.2266C49.4323 69.5391 49.5365 69.7995 49.6719 70.0078C49.8073 70.2161 49.9688 70.3724 50.1562 70.4766C50.3438 70.5807 50.5521 70.6328 50.7812 70.6328C51.0365 70.6328 51.2578 70.5807 51.4453 70.4766C51.638 70.3724 51.7969 70.2161 51.9219 70.0078C52.0521 69.7995 52.1484 69.5391 52.2109 69.2266C52.2734 68.9089 52.3047 68.5391 52.3047 68.1172V67.4375C52.3047 67.0208 52.2682 66.6562 52.1953 66.3438C52.1224 66.026 52.0182 65.763 51.8828 65.5547C51.7474 65.3411 51.5833 65.1823 51.3906 65.0781C51.2031 64.974 50.9948 64.9219 50.7656 64.9219C50.5417 64.9219 50.3359 64.974 50.1484 65.0781C49.9661 65.1823 49.8073 65.3411 49.6719 65.5547C49.5365 65.763 49.4323 66.026 49.3594 66.3438C49.2865 66.6562 49.25 67.0208 49.25 67.4375ZM58.6953 70.6328C58.9297 70.6328 59.138 70.5833 59.3203 70.4844C59.5078 70.3854 59.6562 70.2318 59.7656 70.0234C59.875 69.8099 59.9349 69.5339 59.9453 69.1953H61.6562C61.6458 69.7943 61.5078 70.3177 61.2422 70.7656C60.9766 71.2083 60.6224 71.5521 60.1797 71.7969C59.7422 72.0365 59.2552 72.1562 58.7188 72.1562C58.1615 72.1562 57.6745 72.0677 57.2578 71.8906C56.8464 71.7083 56.5052 71.4453 56.2344 71.1016C55.9635 70.7578 55.7604 70.3411 55.625 69.8516C55.4948 69.3568 55.4297 68.7917 55.4297 68.1562V67.3906C55.4297 66.7604 55.4948 66.1979 55.625 65.7031C55.7604 65.2083 55.9635 64.7891 56.2344 64.4453C56.5052 64.1016 56.8464 63.8411 57.2578 63.6641C57.6693 63.4818 58.1536 63.3906 58.7109 63.3906C59.3047 63.3906 59.8177 63.5156 60.25 63.7656C60.6875 64.0104 61.0286 64.3698 61.2734 64.8438C61.5182 65.3177 61.6458 65.8984 61.6562 66.5859H59.9453C59.9349 66.2214 59.8802 65.9167 59.7812 65.6719C59.6823 65.4219 59.5417 65.2344 59.3594 65.1094C59.1823 64.9844 58.9583 64.9219 58.6875 64.9219C58.3906 64.9219 58.1458 64.9792 57.9531 65.0938C57.7656 65.2031 57.6198 65.3646 57.5156 65.5781C57.4167 65.7917 57.3464 66.0521 57.3047 66.3594C57.2682 66.6615 57.25 67.0052 57.25 67.3906V68.1562C57.25 68.5521 57.2682 68.9036 57.3047 69.2109C57.3411 69.513 57.4089 69.7708 57.5078 69.9844C57.612 70.1979 57.7604 70.3594 57.9531 70.4688C58.1458 70.5781 58.3932 70.6328 58.6953 70.6328ZM66.9844 69.7734C66.9844 69.5964 66.9323 69.4401 66.8281 69.3047C66.7292 69.1641 66.5677 69.026 66.3438 68.8906C66.1198 68.7552 65.8203 68.6094 65.4453 68.4531C65.0547 68.2917 64.7083 68.1302 64.4062 67.9688C64.1042 67.8073 63.849 67.6302 63.6406 67.4375C63.4323 67.2396 63.2734 67.013 63.1641 66.7578C63.0547 66.5026 63 66.2057 63 65.8672C63 65.5182 63.0651 65.1953 63.1953 64.8984C63.3255 64.6016 63.513 64.3411 63.7578 64.1172C64.0026 63.888 64.2969 63.7109 64.6406 63.5859C64.9844 63.4557 65.3724 63.3906 65.8047 63.3906C66.4141 63.3906 66.9349 63.5026 67.3672 63.7266C67.8047 63.9453 68.138 64.2526 68.3672 64.6484C68.6016 65.0391 68.7188 65.4896 68.7188 66H66.8984C66.8984 65.7865 66.8594 65.5938 66.7812 65.4219C66.7031 65.2448 66.5833 65.1042 66.4219 65C66.2604 64.8906 66.0547 64.8359 65.8047 64.8359C65.5755 64.8359 65.3828 64.8802 65.2266 64.9688C65.0755 65.0521 64.9609 65.1667 64.8828 65.3125C64.8099 65.4531 64.7734 65.612 64.7734 65.7891C64.7734 65.9193 64.7969 66.0339 64.8438 66.1328C64.8906 66.2318 64.9688 66.3281 65.0781 66.4219C65.1875 66.5104 65.3333 66.6016 65.5156 66.6953C65.7031 66.7891 65.9401 66.8958 66.2266 67.0156C66.7943 67.2344 67.2656 67.4609 67.6406 67.6953C68.0156 67.9297 68.2969 68.2031 68.4844 68.5156C68.6719 68.8281 68.7656 69.2161 68.7656 69.6797C68.7656 70.0547 68.6953 70.3932 68.5547 70.6953C68.4193 70.9974 68.2214 71.2578 67.9609 71.4766C67.7057 71.6953 67.3958 71.8646 67.0312 71.9844C66.6719 72.099 66.2708 72.1562 65.8281 72.1562C65.1667 72.1562 64.6068 72.026 64.1484 71.7656C63.6953 71.5 63.3516 71.1589 63.1172 70.7422C62.8828 70.3255 62.7656 69.8854 62.7656 69.4219H64.5234C64.5391 69.7552 64.6094 70.0156 64.7344 70.2031C64.8646 70.3906 65.0286 70.5208 65.2266 70.5938C65.4245 70.6615 65.6302 70.6953 65.8438 70.6953C66.099 70.6953 66.3099 70.6615 66.4766 70.5938C66.6432 70.5208 66.7682 70.4141 66.8516 70.2734C66.9401 70.1328 66.9844 69.9661 66.9844 69.7734Z" fill="#1B263B"/>
<path fill-rule="evenodd" clip-rule="evenodd" d="M15 30C15 29.4964 15.0149 28.9962 15.0443 28.5C15.82 15.3912 26.6965 5 40 5C53.3035 5 64.18 15.3912 64.9557 28.5C64.9851 28.9962 65 29.4964 65 30C65 30.5036 64.9851 31.0038 64.9557 31.5C64.18 44.6087 53.3035 55 40 55C26.6965 55 15.82 44.6087 15.0443 31.5C15.0149 31.0038 15 30.5036 15 30ZM34.6781 8.64804C31.4854 9.44121 28.5682 10.9317 26.0975 12.9486C27.7711 14.1787 29.6132 15.1923 31.583 15.9482C32.3771 13.0083 33.4354 10.5115 34.6781 8.64804ZM18.0503 28.5C18.3997 23.3115 20.5479 18.6161 23.8765 15.0321C25.9903 16.6548 28.3562 17.9663 30.9051 18.8976C30.3409 21.8273 30.0191 25.0766 30.0008 28.5H18.0503ZM33.0009 28.5C33.0186 25.3603 33.3051 22.4099 33.7936 19.7689C35.7846 20.2468 37.8629 20.5 40 20.5C42.1371 20.5 44.2154 20.2468 46.2064 19.7689C46.6949 22.41 46.9814 25.3603 46.9991 28.5H33.0009ZM49.9992 28.5C49.9809 25.0766 49.6591 21.8273 49.095 18.8976C51.6438 17.9663 54.0097 16.6548 56.1235 15.0321C59.4521 18.6161 61.6003 23.3115 61.9497 28.5H49.9992ZM48.417 15.9482C50.3868 15.1923 52.2289 14.1787 53.9025 12.9486C51.4318 10.9317 48.5146 9.44122 45.3219 8.64804C46.5646 10.5115 47.6229 13.0083 48.417 15.9482ZM40 17.5C41.9124 17.5 43.771 17.2718 45.5504 16.841C45.1884 15.4828 44.7692 14.2402 44.3051 13.1353C43.4921 11.1995 42.6005 9.82762 41.7637 8.98492C40.938 8.15345 40.3444 8 40 8C39.6556 8 39.062 8.15345 38.2363 8.98492C37.3995 9.82762 36.5079 11.1995 35.6949 13.1353C35.2308 14.2402 34.8116 15.4828 34.4496 16.841C36.229 17.2718 38.0876 17.5 40 17.5ZM30.0631 31.5H18.0503C18.4033 36.7425 20.5929 41.4817 23.9809 45.0795C26.2016 43.3504 28.7054 41.9668 31.4109 41.01C30.6977 38.1697 30.2259 34.9462 30.0631 31.5ZM32.2618 43.8917C30.0781 44.6807 28.0449 45.7842 26.2163 47.1477C29.3722 49.6877 33.244 51.3744 37.4812 51.8574C35.4012 50.5724 33.5841 47.7333 32.2618 43.8917ZM35.147 43.0551C36.7894 42.6916 38.4965 42.5 40.2488 42.5C41.8368 42.5 43.3877 42.6574 44.887 42.9574C44.7023 43.4913 44.508 44.0006 44.3051 44.4837C43.4921 46.4195 42.6005 47.7914 41.7637 48.6341C40.938 49.4656 40.3444 49.619 40 49.619C39.6556 49.619 39.062 49.4656 38.2363 48.6341C37.3995 47.7914 36.5079 46.4195 35.6949 44.4837C35.5044 44.0302 35.3215 43.5535 35.147 43.0551ZM45.7318 40.0682C43.9625 39.6958 42.1284 39.5 40.2488 39.5C38.2015 39.5 36.2081 39.7323 34.2938 40.172C33.6599 37.6147 33.2252 34.6782 33.0666 31.5H46.9334C46.7769 34.6352 46.3518 37.5353 45.7318 40.0682ZM47.7913 43.7361C46.4647 47.6566 44.6268 50.5551 42.5188 51.8574C46.8621 51.3623 50.8215 49.6025 54.0195 46.9552C52.1345 45.5897 50.0393 44.4974 47.7913 43.7361ZM56.2262 44.8565C53.9522 43.1356 51.3913 41.7729 48.6283 40.8526C49.3196 38.0509 49.7771 34.8827 49.9369 31.5H61.9497C61.6039 36.6349 59.4963 41.2869 56.2262 44.8565Z" fill="#1B263B"/>
</svg>